<?xml version="1.0" encoding="UTF-8"?>
<svg id="Capa_1" data-name="Capa 1" xmlns="http://www.w3.org/2000/svg" viewBox="0 0 720 720">
  <defs>
    <style>
      .cls-1 {
        fill: #f08f21;
      }

      .cls-2 {
        fill: #fff;
      }

      .cls-3 {
        fill: #0066b2;
      }

      .cls-4, .cls-5 {
        fill: #f48120;
      }

      .cls-6 {
        fill: #075ea7;
      }

      .cls-5 {
        stroke: #fff;
        stroke-miterlimit: 10;
        stroke-width: 7.66px;
      }
    </style>
  </defs>
  <g>
    <g>
      <path class="cls-6" d="M275.35,661.77c-3.31-.94-4.24-3.28-3.45-6.08.79-2.81,2.82-4.33,6.53-3.28l25.08,7.05c3.72,1.05,4.65,3.4,3.86,6.2-.79,2.82-2.81,4.33-6.13,3.39l-7.08-1.99-6.07,21.57c-1.1,3.92-4.02,5.68-7.63,4.67-3.63-1.03-5.19-4.04-4.09-7.97l6.07-21.56-7.09-2Z"/>
      <path class="cls-6" d="M309.15,700.14c-8.53-1.67-14.36-7.41-12.42-17.28,1.93-9.82,9.5-12.92,18.02-11.25,11.95,2.35,13.97,11.28,13.18,15.33-.63,3.22-2.36,4.06-5.79,3.39l-15.17-2.98c-.42,3.49,1.12,6.11,4.6,6.79,3.89.76,6.84-2.11,10.11-1.46,1.87.36,2.97,2.46,2.64,4.18-.58,2.97-4.83,5.32-15.16,3.28ZM318.04,684.04c.72-3.75-1.35-5.56-4-6.07-2.39-.48-5.14.33-6.04,4.1l10.03,1.97Z"/>
      <path class="cls-6" d="M358.02,677.24c7.61.53,12.39,4.51,12.12,8.32-.16,2.48-2.02,3.89-4.18,3.74-2.81-.19-3.75-4.14-7.62-4.4-4.43-.3-5.68,3.33-5.89,6.29-.25,3.59.68,7.21,4.48,7.47,3.64.25,5.55-3.5,8.56-3.28,2.58.16,3.91,2.38,3.79,4.27-.15,2.23-3.57,7.26-13.24,6.59-8.66-.59-15.18-5.54-14.49-15.58.69-9.99,7.8-14.02,16.47-13.42Z"/>
      <path class="cls-6" d="M400.84,697.88c.04,1.91.38,3.6.41,4.92.05,2.7-2.43,3.92-5.03,3.95-3.75.08-5.16-1.81-5.58-4.28-2.05,3.21-5.9,4.49-9.66,4.57-6.04.1-10.38-2.31-10.48-8.39-.07-4.62,3.03-8.12,13.87-9,4.08-.34,5.71-.95,5.67-2.8-.03-1.75-1.54-2.67-4.45-2.63-4.71.09-5.74,3.87-9.46,3.93-2.17.05-3.45-1.14-3.5-3.32-.07-4.08,5.61-6.83,13.17-6.97,5.77-.09,14.69,1.07,14.82,7.89l.22,12.12ZM390.17,693.73c-1.51,1.68-5.05,1.43-7.01,2.24-.89.39-1.45,1.15-1.43,2.31.02,1.65,1.64,2.68,3.39,2.65,3.07-.05,5.15-2,5.11-4.06l-.05-3.14Z"/>
      <path class="cls-6" d="M438.88,686.28c-.46-3.43-1.78-4.48-4.2-4.14-1.83.25-3.36,2.38-2.94,5.43l1.37,10.02c.49,3.67-1.54,5.65-4.68,6.09-3.15.43-5.63-.95-6.14-4.61l-1.41-10.34c-.47-3.41-1.79-4.46-4.2-4.13-1.83.25-3.37,2.38-2.94,5.42l1.37,10.03c.5,3.67-1.53,5.64-4.68,6.09-3.15.43-5.63-.94-6.13-4.62l-2.5-18.31c-.47-3.37.93-5.37,4.48-5.84,3.21-.45,4.73,1.21,5.54,4.42h.09c1.34-3.52,4.09-5.75,8.23-6.33,3.51-.47,7.4.59,8.85,4.19,1.8-4.14,4.58-6.03,8.41-6.54,7.44-1.02,11.12,3.17,11.94,9.15l1.75,12.87c.51,3.67-1.54,5.66-4.67,6.07-3.14.44-5.64-.94-6.13-4.6l-1.43-10.32Z"/>
      <path class="cls-6" d="M447.16,666.27c-.95-3.64.46-5.75,3.75-6.61,3.28-.85,5.55.32,6.49,3.95l2.32,8.92.1-.04c.9-2.85,2.88-5.12,6.37-6.02,8.82-2.29,13.96,5.78,15.31,10.95,2.24,8.66-.95,15.34-8.33,17.25-3.02.79-7.55.43-9.29-2.73l-.1.04c.71,2.71-.35,5.23-3.36,6-3.18.83-5.17-.52-6.05-3.91l-7.2-27.81ZM468.04,687.81c3.59-.94,3.73-4.41,2.99-7.28-.8-3.07-2.69-5.75-6.33-4.83-2.31.61-3.52,3.13-2.55,6.85.98,3.78,2.86,6.04,5.89,5.25Z"/>
      <path class="cls-6" d="M479.48,649.65c2.72-.9,5.6.56,6.49,3.28.89,2.72-.56,5.6-3.29,6.49-2.7.89-5.59-.55-6.48-3.27-.89-2.71.57-5.59,3.28-6.49ZM479.82,668.15c-1.16-3.51.47-5.84,3.49-6.83,3.02-.99,5.72-.08,6.88,3.44l5.71,17.35c1.15,3.53-.48,5.84-3.51,6.83-3.02.99-5.71.09-6.87-3.44l-5.7-17.36Z"/>
      <path class="cls-6" d="M524.73,667.33c.7,1.76,1.63,3.23,2.13,4.44,1.01,2.52-.88,4.52-3.28,5.48-3.5,1.4-5.47.15-6.75-2.03-.79,3.73-3.92,6.3-7.41,7.7-5.61,2.24-10.51,1.53-12.78-4.13-1.7-4.28-.04-8.64,9.78-13.32,3.69-1.77,4.99-2.92,4.31-4.64-.65-1.62-2.38-1.94-5.09-.87-4.37,1.75-4.01,5.66-7.44,7.04-2.02.81-3.65.15-4.45-1.87-1.52-3.78,2.8-8.36,9.84-11.17,5.36-2.14,14.1-4.23,16.64,2.11l4.5,11.27ZM513.29,667.23c-.82,2.11-4.23,3.13-5.74,4.58-.71.68-.97,1.59-.54,2.67.62,1.53,2.48,1.91,4.11,1.26,2.84-1.15,4.11-3.71,3.34-5.6l-1.16-2.92Z"/>
      <path class="cls-6" d="M527.63,637.55c-1.68-3.3-.42-5.85,2.41-7.29,2.82-1.44,5.63-.97,7.31,2.34l13.03,25.58c1.67,3.32.41,5.84-2.42,7.3-2.83,1.44-5.63.95-7.3-2.34l-13.02-25.58Z"/>
      <path class="cls-6" d="M576.39,638.81c1,1.63,2.15,2.92,2.84,4.05,1.4,2.3-.13,4.6-2.35,5.94-3.21,1.95-5.37,1.04-6.98-.9-.17,3.81-2.84,6.86-6.05,8.81-5.17,3.12-10.13,3.21-13.27-1.99-2.4-3.95-1.45-8.53,7.48-14.75,3.35-2.33,4.45-3.68,3.49-5.26-.9-1.5-2.67-1.55-5.15-.04-4.03,2.44-3.04,6.23-6.21,8.14-1.87,1.13-3.57.75-4.69-1.11-2.13-3.48,1.4-8.71,7.88-12.63,4.94-2.99,13.22-6.46,16.76-.62l6.27,10.37ZM565.1,640.58c-.47,2.2-3.67,3.77-4.93,5.46-.59.78-.7,1.72-.09,2.72.85,1.41,2.75,1.48,4.24.58,2.63-1.59,3.44-4.32,2.39-6.08l-1.61-2.68Z"/>
      <path class="cls-6" d="M592.59,607.59c-1.28-2.83-1.75-4.89,1.04-7.07,2.25-1.77,5.05-1.69,6.8.52.91,1.16,1.5,2.45,2.2,4.53l5.3,15.91c1.22,3.62-.3,5.02-3.35,7.41-2.9,2.3-4.63,3.45-7.85,1.39l-14.21-8.91c-1.89-1.21-3.08-1.95-4-3.12-1.73-2.21-1.14-4.97,1.11-6.74,2.79-2.19,4.24-1.71,7.26.57l11.56,8.83.09-.07-5.95-13.24Z"/>
      <path class="cls-6" d="M592.65,585.05c2.15-1.89,5.36-1.68,7.26.46,1.88,2.16,1.67,5.36-.47,7.26-2.15,1.88-5.37,1.67-7.26-.48-1.88-2.14-1.67-5.36.46-7.24ZM600.24,601.94c-2.45-2.79-1.86-5.56.53-7.66,2.38-2.1,5.21-2.32,7.65.46l12.06,13.72c2.45,2.78,1.86,5.56-.53,7.65-2.38,2.09-5.2,2.32-7.65-.45l-12.06-13.72Z"/>
      <path class="cls-6" d="M615.89,573.09c-2.67-2.66-2.52-5.2-.12-7.6,2.41-2.39,4.94-2.54,7.61.11l20.32,20.35c2.47,2.47,2.63,4.87.28,7.2-2.2,2.2-4.89,1.83-6.88-.15l-.08.06c1.83,3.11-.14,7.2-2.36,9.41-5.39,5.38-12.77,4.75-19.1-1.59-3.78-3.78-8.12-12.32-1.68-18.75,2.55-2.56,5.51-3.12,8.43-2.44l.08-.07-6.51-6.53ZM622.61,585.52c-2.65,2.66-1.32,5.66.94,7.9,2.1,2.1,5.15,3.75,7.8,1.14,2.2-2.21,1.23-4.99-1.54-7.76-2.74-2.74-5.5-2.95-7.19-1.28Z"/>
      <path class="cls-6" d="M661.97,558.71c1.45,1.22,2.97,2.07,3.98,2.92,2.07,1.72,1.38,4.38-.27,6.38-2.41,2.89-4.76,2.73-6.91,1.42,1.08,3.66-.45,7.41-2.84,10.3-3.86,4.64-8.52,6.34-13.19,2.45-3.54-2.94-4.16-7.58,2.25-16.38,2.4-3.31,3.02-4.94,1.58-6.12-1.34-1.12-3.02-.59-4.87,1.65-3.02,3.62-.84,6.88-3.21,9.73-1.39,1.66-3.14,1.85-4.8.48-3.14-2.62-1.52-8.7,3.32-14.52,3.7-4.44,10.39-10.43,15.65-6.05l9.32,7.74ZM651.86,564.07c.27,2.23-2.24,4.75-2.88,6.77-.29.93-.09,1.85.8,2.6,1.26,1.05,3.09.5,4.21-.84,1.97-2.36,1.85-5.21.27-6.52l-2.4-2Z"/>
    </g>
    <path class="cls-6" d="M250.35,688.1c-4.77-1.36-5.89-4.64-4.63-9.06,1.27-4.41,4.23-10.76,8.18-18.11,1.12-2.06,2.26-2.8,4.82-2.05,2.58.73,3.16,1.96,3.02,4.3-.54,8.33-1.4,15.29-2.67,19.7-1.26,4.4-3.96,6.6-8.73,5.23ZM259.4,656.61c-3.8-1.07-5.98-5.02-4.9-8.81,1.09-3.8,5.03-5.98,8.81-4.89,3.8,1.09,5.98,5.02,4.89,8.81-1.1,3.79-5.03,5.97-8.81,4.89Z"/>
    <path class="cls-6" d="M652.96,528.42c3.47-3.55,6.91-2.96,10.17.24,3.3,3.22,7.46,8.85,12.04,15.82,1.28,1.97,1.39,3.32-.48,5.22-1.87,1.93-3.23,1.84-5.22.6-7.06-4.44-12.78-8.51-16.05-11.72-3.28-3.2-3.94-6.62-.46-10.16ZM676.37,551.36c2.77-2.82,7.25-2.85,10.08-.1,2.82,2.77,2.86,7.26.1,10.07-2.75,2.82-7.25,2.87-10.07.12-2.83-2.78-2.86-7.27-.11-10.08Z"/>
  </g>
  <g>
    <path class="cls-5" d="M372.59,640.62c-68.85,0-134.33-22.02-189.36-63.69-66.9-50.64-110.08-124.31-121.57-207.43-11.49-83.12,10.07-165.73,60.72-232.63C182.28,57.71,273.66,12.31,373.07,12.31c68.85,0,134.33,22.02,189.36,63.68,138.11,104.56,165.41,301.97,60.86,440.07-59.92,79.16-151.3,124.56-250.7,124.56Z"/>
    <path class="cls-3" d="M649.72,382.11c-21.52,149.75-160.34,253.7-310.11,232.2-149.74-21.52-253.69-160.36-232.17-310.09,21.52-149.74,160.36-253.71,310.09-232.19,149.74,21.52,253.7,160.35,232.19,310.09Z"/>
  </g>
  <g>
    <path class="cls-1" d="M46.96,298.93c20.31,112.54,70.46,218.63,88.05,253.52,67.84-11.29,131.74-35.45,159.24-47.15-4.43-12.64-10.05-26.66-14.4-37.15-35.16,11.42-76.6,25.14-82.15,27.58,7.88-3.46,13.52-14.55,9.06-24.9l-31.53,21.44-2.63-2.63-.73-1.7c-18.05-26.83-33.96-73.5-47.29-138.8-5.3-25.98-9.02-49.25-11.18-64.19-.33-2.29-.66-4.42-.93-6.39-20.14,5.37-46.79,14.02-65.51,20.36h0Z"/>
    <g>
      <g>
        <path class="cls-2" d="M24.07,279.13s75.27-26.56,104.05-31c-.55,0,18.82,164.94,59.78,223.58-1.11-1.1,101.82-34.32,101.82-34.32,0,0,19.95,45.39,27.12,71.4,0,1.11-94.08,44.29-193.69,58.13,0,0-76.39-140.03-99.08-287.8Z"/>
        <path class="cls-2" d="M123.15,586.33c-7.03,0-13.6-3.82-17.03-10.11-3.19-5.84-78.29-144.73-101.23-294.15-1.42-9.22,3.93-18.14,12.72-21.24,3.14-1.11,77.33-27.22,107.56-31.88,10.07-1.56,19.62,4.94,21.88,14.87.3,1.31.46,2.63.48,3.93,1.32,15.71,18.62,141.76,48.66,200.01,15.84-5.69,42.34-14.24,87.57-28.83,9.49-3.07,19.73,1.55,23.73,10.66.84,1.91,20.6,46.99,28.06,74.05.46,1.68.7,3.42.7,5.16,0,13.51-8.79,17.25-28.06,25.46-9.3,3.96-24.55,10.15-44.4,17.14-33.36,11.75-84.38,27.31-137.97,34.76-.9.13-1.79.18-2.68.18ZM45.91,292.12c20.29,112.38,70.48,218.59,88.07,253.52,67.85-11.3,131.73-35.45,159.22-47.16-4.42-12.63-10.05-26.66-14.4-37.15-33.72,10.96-73.19,24.02-81.28,27.23-7.51,4.29-17.05,3.12-23.29-3.07-.83-.82-1.58-1.72-2.25-2.68h0c-18.52-26.53-34.82-73.8-48.44-140.48-5.31-25.98-9.02-49.24-11.19-64.18-.33-2.29-.64-4.41-.92-6.39-20.13,5.37-46.79,14.03-65.51,20.36ZM202.21,484.82c-.9.98-1.91,1.88-3.02,2.67,1.09-.75,2.1-1.65,3.02-2.67ZM205.74,464.08c.57,1.33.98,2.7,1.24,4.08-.25-1.36-.66-2.73-1.24-4.08ZM138.9,264.27c-1.54,1.03-3.26,1.85-5.12,2.42,1.9-.58,3.61-1.41,5.12-2.42ZM147.53,248.49c-.02,1.15-.14,2.29-.36,3.4.23-1.15.35-2.29.36-3.4Z"/>
      </g>
      <g>
        <path class="cls-2" d="M605.3,284.52c-50.55,0-91.52,41.74-91.52,93.22s40.97,93.18,91.52,93.18,91.53-41.71,91.53-93.18-40.98-93.22-91.53-93.22ZM602.84,409.91c-10.36,0-18.76-8.61-18.76-19.23s8.4-19.23,18.76-19.23,18.76,8.61,18.76,19.23-8.41,19.23-18.76,19.23Z"/>
        <path class="cls-2" d="M605.3,490.32c-61.16,0-110.93-50.51-110.93-112.58s49.76-112.62,110.93-112.62,110.94,50.52,110.94,112.62-49.77,112.58-110.94,112.58ZM605.3,303.92c-39.76,0-72.12,33.11-72.12,73.81s32.35,73.78,72.12,73.78,72.13-33.1,72.13-73.78-32.36-73.81-72.13-73.81ZM602.84,429.32c-21.04,0-38.16-17.33-38.16-38.64s17.12-38.63,38.16-38.63,38.16,17.33,38.16,38.63-17.12,38.64-38.16,38.64Z"/>
      </g>
      <g>
        <path class="cls-2" d="M339.92,255.28s111.19-22.56,187.23-29.26c.84.84,15.89,67.7,15.89,67.7,0,0-47.65,11.71-53.51,12.54,1.68-.83,20.07,115.34,19.23,127.05,0-.83-66.03,10.87-85.25,11.71,0,0-20.06-115.36-20.06-123.71,0,1.68-60.19,4.17-60.19,4.17,0,0-5.84-61.84-3.34-70.2Z"/>
        <path class="cls-2" d="M423.5,464.42c-9.39,0-17.49-6.75-19.11-16.08-6.47-37.19-13.8-80.21-17.66-105.68-3.89.26-8.1.51-12.31.74-15.18.84-30.36,1.47-30.36,1.47-10.34.39-19.15-7.29-20.12-17.56-6.2-65.6-3.6-74.31-2.62-77.59,2.05-6.86,7.72-12.04,14.74-13.46,4.58-.93,113.13-22.85,189.39-29.57,5.71-.51,11.4,1.56,15.46,5.65q4.78,4.81,21.06,77.12c2.32,10.31-4.04,20.58-14.3,23.11-8.23,2.02-22.86,5.6-35.14,8.48.01.06.02.12.03.17,1.95,11.01,4.42,26.08,6.78,41.35,6.32,40.92,9.28,65.18,8.78,72.12-.72,10.15-9.15,17.96-19.23,18.02-3.06.38-11.87,1.76-19.72,2.99-28.36,4.45-52.82,8.18-64.82,8.7-.28.01-.57.02-.85.02ZM422.85,320.85c.52,7.09,8.48,55.31,16.7,103.01,13.42-1.76,30.67-4.47,43.61-6.5,1.71-.27,3.29-.51,4.76-.74-3.75-29.88-13.44-91.08-16.3-102.96-.23-.54-.42-1.1-.6-1.67-2.82-9.12,1.4-18.93,9.96-23.14,1.84-.9,3.81-1.51,5.83-1.8h0c2.76-.45,16.96-3.77,33.1-7.66-2.77-12.15-5.43-23.72-7.48-32.4-55.55,6.07-123.82,18.64-153.59,24.36.33,8.88,1.14,21.26,2.15,33.9,16.18-.81,31.25-1.74,36.44-2.38,1.9-.62,3.93-.96,6.03-.96,10.57,0,19.16,8.44,19.4,18.95ZM476.86,320.95c2.02,1.76,4.61,3.29,7.87,4.11-2.91-.75-5.61-2.16-7.87-4.11ZM385.61,313.64c-.98,2.25-1.57,4.81-1.57,7.67,0-2.72.56-5.31,1.57-7.67Z"/>
      </g>
      <g>
        <path class="cls-2" d="M294.78,268.65c-52.17,0-94.45,44.73-94.45,99.89s42.28,99.88,94.45,99.88,94.44-44.72,94.44-99.88-42.27-99.89-94.44-99.89ZM298.59,404.06c-10.36,0-18.76-9.73-18.76-21.73s8.4-21.74,18.76-21.74,18.76,9.74,18.76,21.74-8.4,21.73-18.76,21.73Z"/>
        <path class="cls-2" d="M294.78,487.82c-62.78,0-113.85-53.51-113.85-119.28s51.07-119.3,113.85-119.3,113.84,53.52,113.84,119.3-51.07,119.28-113.84,119.28ZM294.78,288.06c-41.38,0-75.04,36.11-75.04,80.49s33.66,80.47,75.04,80.47,75.03-36.1,75.03-80.47-33.66-80.49-75.03-80.49ZM298.59,423.46c-21.04,0-38.16-18.45-38.16-41.13s17.12-41.14,38.16-41.14,38.16,18.46,38.16,41.14-17.12,41.13-38.16,41.13Z"/>
      </g>
    </g>
    <g>
      <path class="cls-4" d="M25.75,281.54s75.27-26.56,104.06-30.98c-.57,0,18.81,164.93,59.78,223.58-1.14-1.1,101.81-34.31,101.81-34.31,0,0,19.92,45.38,27.13,71.39,0,1.1-94.09,44.27-193.72,58.12,0,0-76.37-140.02-99.06-287.8Z"/>
      <path class="cls-4" d="M606.98,286.97c-50.56,0-91.55,41.71-91.55,93.19s40.99,93.2,91.55,93.2,91.52-41.73,91.52-93.2-40.98-93.19-91.52-93.19ZM604.49,412.35c-10.34,0-18.74-8.62-18.74-19.25s8.4-19.22,18.74-19.22,18.79,8.62,18.79,19.22-8.4,19.25-18.79,19.25Z"/>
      <path class="cls-4" d="M341.6,257.72s111.17-22.57,187.22-29.26c.83.85,15.89,67.7,15.89,67.7,0,0-47.64,11.71-53.5,12.53,1.68-.82,20.07,115.35,19.23,127.07,0-.83-66.03,10.86-85.26,11.69,0,0-20.07-115.35-20.07-123.69,0,1.66-60.17,4.17-60.17,4.17,0,0-5.84-61.85-3.34-70.2Z"/>
      <path class="cls-4" d="M296.47,271.08c-52.17,0-94.47,44.72-94.47,99.89s42.3,99.88,94.47,99.88,94.44-44.72,94.44-99.88-42.29-99.89-94.44-99.89ZM300.27,406.48c-10.38,0-18.77-9.72-18.77-21.72s8.39-21.73,18.77-21.73,18.76,9.73,18.76,21.73-8.41,21.72-18.76,21.72Z"/>
    </g>
  </g>
</svg>